<?xml version="1.0" encoding="utf-8"?>
<svg version="1.1" id="Layer_1" xmlns="http://www.w3.org/2000/svg" x="0px" y="0px" width="100%" viewBox="0 0 1000 1000" enable-background="new 0 0 1000 1000">
  <path fill="#FFD85A" opacity="1.000000" stroke="none" d="M 414.867 879.32 C 405.114 877.288 392.885 875.447 383.229 872.732 C 359.161 865.949 340.528 858.155 317.794 846.95 L 314.041 844.539 L 313.645 844.347 C 312.218 842.442 310.728 841.287 309.391 840.518 C 288.95 828.088 271.191 812.498 255.459 794.527 C 239.011 775.719 226.33 754.55 216.448 731.785 C 198.678 690.79 191.51 647.375 190.276 603.165 C 189.57 577.733 190.488 552.162 192.204 526.781 C 193.716 504.437 196.524 482.071 200.321 460.002 C 203.427 441.976 208.839 424.364 213.609 406.668 L 213.847 405.787 L 214.744 405.943 C 220.669 406.974 224.402 406.731 227.077 404.893 C 229.747 403.058 231.212 399.742 232.202 394.021 C 232.543 392.082 232.805 390.095 233.199 388.112 C 244.388 332.102 273.158 286.778 317.854 251.577 C 324.142 246.714 325.111 244.374 323.319 236.014 L 323.184 235.386 L 323.712 235.004 C 328.836 231.297 333.693 227.743 338.845 224.361 L 339.461 223.957 L 340.027 224.423 C 343.141 226.987 345.886 228.226 348.827 228.329 C 351.773 228.432 354.692 227.385 358.161 224.952 C 377.434 211.561 398.738 202.673 421.4 197.098 C 427.272 195.658 430.321 194.538 432.084 192.349 C 433.845 190.162 434.264 186.982 434.383 181.019 L 434.399 180.218 L 435.184 180.059 C 462.783 174.473 490.203 171.368 518.101 173.908 C 537.761 175.707 557.127 179.083 575.997 184.851 C 638.5 204.002 688.582 241.028 727.469 293.066 C 758.321 334.402 778.425 381.027 791.929 430.534 C 804.507 476.68 810.642 523.877 812.776 571.487 C 813.981 598.423 813.762 625.538 809.842 652.386 C 804.734 687.301 795.038 720.893 777.67 751.914 C 768.249 768.722 757.408 784.734 743.501 798.172 C 732.365 808.916 720.135 818.483 708.525 828.63 C 707.616 829.31 707.292 830.826 706.52 832.256 L 706.379 832.517 L 706.108 832.659 C 692.045 840.03 678.329 848.425 663.644 854.598 C 646.883 861.634 629.311 866.679 612.146 872.533 C 611.076 872.867 609.884 872.881 608.329 872.822 L 606.855 872.766 L 607.451 871.422 C 608.29 869.531 609.642 867.628 611.222 866.106 C 630.449 847.766 641.087 824.963 647.029 799.393 C 653.164 773.109 652.779 746.552 651.186 719.751 C 649.458 690.607 644.802 662.086 636.002 634.265 C 625.224 600.143 609.087 569.355 581.648 545.638 C 556.079 523.457 526.882 511.806 492.543 514.896 C 462.047 517.547 437.241 531.601 416.247 553.062 C 397.248 572.429 384.751 595.828 376.078 621.459 C 367.131 647.861 362.335 674.987 360.823 702.826 C 359.164 733.278 358.601 763.565 365.055 793.502 C 371.501 823.518 383.678 850.306 407.005 871.141 C 408.119 872.139 409.21 873.167 410.286 874.193 C 410.824 874.706 411.359 875.221 411.894 875.734 C 412.429 876.247 413.505 877.27 413.505 877.27 M 519.866 469.377 C 519.866 469.377 520.827 468.507 521.283 468.075 C 521.739 467.642 522.179 467.211 522.615 466.771 C 523.486 465.89 524.306 465.006 525.099 464.094 C 526.683 462.272 528.093 460.417 529.381 458.481 C 531.957 454.611 533.943 450.574 535.499 446.303 C 538.61 437.759 539.785 429.222 540.117 419.935 C 513.138 419.935 487.777 419.935 461.221 419.935 C 462.126 437.577 465.94 452.859 478.114 465.731 C 484.164 472.215 490.814 475.657 497.956 476.274 C 505.103 476.891 512.468 474.648 519.975 469.288 M 379.922 401.083 C 379.922 401.083 379.359 402.076 379.099 402.565 C 378.839 403.054 378.592 403.538 378.35 404.033 C 377.867 405.022 377.43 406.004 377.024 407.011 C 376.212 409.024 375.564 411.033 375.057 413.091 C 374.043 417.205 373.645 421.303 373.84 425.392 C 374.23 433.571 376.942 441.285 382.096 447.709 C 388.161 455.404 396.182 459.073 404.32 459.008 C 412.457 458.943 420.348 455.154 426.153 447.251 C 435.688 434.552 436.822 420.658 430.517 406.252 C 425.518 394.54 416.781 388.242 407.204 387.26 C 397.623 386.277 387.564 390.66 379.842 401.207 M 624.436 437.442 C 624.436 437.442 625.114 435.586 625.407 434.681 C 625.7 433.776 625.963 432.886 626.203 431.987 C 626.682 430.19 627.049 428.434 627.31 426.665 C 627.832 423.129 627.912 419.716 627.527 416.304 C 626.756 409.477 624.183 403.016 619.438 396.768 C 613.533 388.859 605.465 385.159 597.214 385.247 C 588.961 385.335 580.891 389.214 574.997 397.153 C 569.779 404.048 567.262 412.63 567.297 421.347 C 567.333 430.064 569.917 438.598 575.235 445.401 C 580.785 452.601 587.685 457.116 596.96 457.067 C 603.732 457.118 609.015 455.244 613.513 451.815 C 618.017 448.381 621.522 443.489 624.487 437.317 M 343.285 487.956 C 343.285 487.956 345.351 487.57 346.388 487.382 C 347.425 487.194 348.462 487.009 349.498 486.825 C 351.571 486.456 353.641 486.091 355.706 485.711 C 359.837 484.952 363.931 484.139 367.983 483.131 C 369.625 482.73 371.277 481.988 372.495 480.844 C 373.698 479.714 374.361 478.549 373.833 476.794 C 373.285 474.202 370.515 471.255 367.916 470.283 C 351.037 463.59 334.048 463.602 317.177 470.317 C 314.554 471.306 311.745 474.218 311.182 476.811 C 310.65 478.552 311.292 479.736 312.477 480.882 C 313.676 482.041 315.305 482.796 316.959 483.175 C 325.41 485.165 334.047 486.404 343.621 487.953 M 639.632 467.673 C 638.958 467.871 638.363 467.98 637.857 468.209 C 635.617 469.168 633.174 469.952 631.308 471.167 C 629.461 472.37 628.249 473.695 628.371 476.236 C 628.279 478.796 629.482 480.211 631.321 481.432 C 633.177 482.664 635.578 483.392 637.851 484.092 C 652.528 488.636 667.184 488.602 681.86 484.044 C 684.146 483.337 686.564 482.588 688.437 481.35 C 690.292 480.123 691.505 478.721 691.419 476.228 C 691.54 473.582 690.299 472.122 688.392 470.863 C 686.466 469.591 683.964 468.837 681.599 468.097 C 667.937 463.799 654.252 463.946 639.632 467.674 L 639.632 467.673 Z"/>
  <path fill="#FFF6B6" opacity="1.000000" stroke="none" d=" M412.963135,878.303162 C410.657715,875.951782 408.547882,873.862366 406.338745,871.883789 C382.890350,850.883789 370.557983,823.828491 364.078094,793.709839 C357.612640,763.658264 358.165924,733.238342 359.825256,702.768738 C361.344543,674.869995 366.165924,647.611389 375.131592,621.135681 C383.836731,595.429382 396.450989,571.841187 415.533325,552.360107 C436.638794,530.813599 461.757782,516.610901 492.455536,513.897278 C527.023682,510.841492 556.591553,522.612427 582.303284,544.879822 C609.857849,568.743164 626.143799,599.758057 636.955872,633.961731 C645.772705,661.853577 650.451172,690.495361 652.185059,719.690125 C653.778137,746.513977 654.151184,773.213989 648.003479,799.618042 C642.026978,825.286499 631.248169,848.338074 611.913330,866.827393 C610.395874,868.278503 609.155945,870.019836 607.958618,871.824707 C607.285889,872.646301 606.441467,873.269470 604.983765,873.665527 C602.752747,873.655396 601.109375,873.756653 599.520874,874.106628 C574.799500,879.553345 549.810608,882.673340 524.478577,883.033325 C516.676331,883.144104 508.882263,883.784485 501.079773,883.928772 C474.465698,884.420898 447.890656,884.157288 421.555450,879.465820 C419.811157,879.155151 417.867035,879.966431 416.015839,880.255920 C415.048096,879.709473 414.080353,879.163025 412.963135,878.303162 z"/>
  <path fill="#FCC62C" opacity="1.000000" stroke="none" d="M 700.718 833.49 C 702.97 831.553 706.238 828.465 707.456 827.286 C 718.032 818.355 731.054 807.408 742.111 796.732 C 755.885 783.453 766.547 767.671 775.924 750.935 C 793.204 720.126 802.783 686.878 807.862 652.095 C 811.771 625.384 811.981 598.458 810.777 571.575 C 808.651 524.049 802.55 477.07 789.999 431.058 C 776.541 381.684 756.6 335.394 725.866 294.261 C 687.185 242.429 637.613 205.761 575.411 186.762 C 556.663 181.022 537.498 177.686 517.918 175.898 C 490.224 173.356 463.089 176.446 435.345 181.769 L 434.702 181.892 L 434.333 181.354 C 431.995 177.948 430.138 176.014 427.944 175.017 C 425.768 174.029 423.42 174.015 419.874 174.799 C 393.807 180.47 369.647 190.455 347.413 205.242 C 342.35 208.603 339.813 210.706 338.812 213.363 C 337.814 216.012 338.373 219.124 340.06 224.734 L 340.264 225.411 L 339.693 225.829 C 334.855 229.37 329.993 232.927 324.593 236.429 L 323.854 236.908 L 323.287 236.239 C 320.247 232.647 317.559 230.768 314.636 230.302 C 311.724 229.838 308.806 230.793 305.175 233.444 C 291.555 243.278 279.432 254.672 268.354 267.355 C 238.582 301.403 220.069 340.723 211.309 384.943 C 210.53 388.869 209.687 392.694 209.918 396.323 C 210.149 399.944 211.305 403.178 214.83 406.141 L 215.297 406.533 L 215.148 407.137 C 210.763 424.907 205.369 442.438 202.292 460.34 C 198.502 482.364 195.706 504.628 194.199 526.915 C 192.484 552.264 191.568 577.74 192.274 603.108 C 193.495 647.184 200.581 690.228 218.282 730.988 C 228.104 753.637 240.62 774.546 256.963 793.209 C 272.602 811.087 275.975 817.943 296.275 830.269 C 297.897 831.298 312.443 841.728 314.365 843.097 L 317.74 846.928 L 313.285 844.499 C 302.092 838.396 290.079 832.905 279.707 825.161 C 265.135 814.261 250.653 802.712 238.073 789.566 C 212.557 762.868 194.378 731.28 181.919 696.446 C 174.014 674.322 168.146 651.713 165.016 628.454 C 163.38 616.282 162.109 604.041 161.059 591.81 C 160.351 583.543 160.315 575.202 159.993 566.03 C 159.955 552.735 159.905 540.355 159.856 527.989 C 159.904 523.004 159.754 517.964 160.037 512.929 C 160.939 496.999 161.398 480.972 163.134 465.074 C 166.902 430.612 172.929 396.492 182.812 363.141 C 189.817 339.513 198.263 316.461 208.724 294.096 C 220.484 268.964 234.771 245.328 251.776 223.531 C 266.118 205.158 282.433 188.497 300.378 173.414 C 321.648 155.548 345.028 141.104 370.005 129.393 C 389.337 120.335 409.546 113.087 430.636 109.118 C 444.246 106.563 458.026 105.001 471.687 103.006 C 474.107 102.653 476.644 102.321 479.983 102 C 491.275 101.976 501.746 101.939 512.135 101.898 C 540.928 104.191 569.253 109.529 596.451 119.278 C 610.43 124.297 623.759 131.138 637.158 137.458 C 656.467 146.574 673.952 158.653 690.228 172.342 C 698.482 179.287 707.298 185.914 714.608 193.92 C 727.364 207.913 739.734 222.39 751.169 237.491 C 765.459 256.372 777.267 276.972 787.288 298.425 C 798.911 323.316 809.085 348.851 815.981 375.546 C 820.341 392.434 825.025 409.294 828.635 426.387 C 831.497 439.952 832.999 453.79 834.981 467.466 C 836.405 477.296 837.83 487.151 838.895 497.042 C 839.597 503.58 839.678 510.167 839.995 516.678 C 840.356 524.099 840.674 531.561 840.97 539.916 C 840.978 557.256 841.027 573.679 841.075 590.09 C 840.874 608.048 838.249 625.707 835.161 643.326 C 829.5 675.582 818.883 706.087 803.136 734.724 C 794.05 751.23 782.971 766.365 770.558 780.582 C 753.18 800.467 732.526 816.253 710.507 830.331 C 709.209 831.149 707.81 831.695 706.343 832.481 L 695.042 838.541 L 700.718 833.49 Z"/>
  <path fill="#F4E590" opacity="1.000000" stroke="none" d="M 417.567 878.81 C 420.16 878.855 424.845 878.995 426.869 879.275 C 453.121 883.959 474.462 883.421 501.061 882.929 C 508.832 882.786 516.628 882.146 524.464 882.033 C 549.741 881.677 574.63 878.568 599.305 873.13 C 600.97 872.769 602.717 872.656 604.639 872.64 L 607.552 872.615 L 605.269 874.423 C 598.068 880.125 592.489 887.018 587.499 894.981 C 582.775 902.284 574.237 905.043 566.276 906.972 C 553.053 910.173 539.592 911.948 525.935 912.051 C 509.876 912.167 493.748 913.313 477.635 912.788 C 465.142 912.379 451.862 911.921 440.639 904.687 C 435.657 901.383 432.213 896.01 427.983 892.062 C 424.088 888.403 419.799 885.113 415.493 881.312 L 412.504 878.846 L 417.567 878.81 Z"/>
  <path fill="#FFEB75" opacity="1.000000" stroke="none" d="M 213.94 407.701 C 209.929 404.323 208.275 400.39 207.974 396.468 C 207.673 392.553 208.574 388.461 209.349 384.555 C 218.185 340.103 236.926 300.32 266.85 266.04 C 277.996 253.286 290.287 241.739 304.006 231.823 C 307.906 229.034 311.589 227.79 314.924 228.349 C 318.251 228.907 321.461 231.283 324.545 235.135 L 324.675 235.298 L 324.729 235.502 C 325.895 239.932 326.215 243.115 325.347 245.738 C 324.474 248.372 322.365 250.568 319.092 253.148 C 274.621 288.099 246.214 332.832 235.161 388.501 C 234.778 390.419 234.52 392.384 234.173 394.365 C 233.113 400.317 231.314 404.407 228.211 406.54 C 225.113 408.669 220.565 408.957 214.406 407.913 L 214.14 407.868 Z"/>
  <path fill="#340C02" opacity="1.000000" stroke="none" d="M 521.422 471.969 C 513.629 477.42 505.333 479.948 497.656 479.289 C 489.979 478.555 482.373 474.565 475.926 467.781 C 463.393 454.253 459.019 437.4 458.175 419.024 L 458.081 416.934 C 484.991 416.934 513.795 416.934 541.151 416.934 L 543.211 416.934 L 543.151 418.992 C 542.563 438.645 537.648 457.332 521.612 471.819 L 521.52 471.902 Z"/>
  <path fill="#340D02" opacity="1.000000" stroke="none" d="M 377.636 399.114 C 385.858 388.241 397.24 383.207 407.545 384.239 C 417.841 385.407 427.785 392.74 433.273 405.063 C 439.696 420.187 438.384 435.578 428.559 449.045 C 422.211 457.398 413.131 461.887 404.346 462.008 C 395.563 462.03 386.352 457.694 379.75 449.577 C 374.357 442.723 371.277 434.145 370.87 425.492 C 370.506 416.852 372.758 407.582 377.511 399.306 L 377.566 399.211 L 377.596 399.169 Z"/>
  <path fill="#340D02" opacity="1.000000" stroke="none" d="M 627.046 438.983 C 620.944 451.416 611.492 459.85 596.942 460.067 C 586.865 459.878 578.785 454.778 572.863 447.236 C 567.298 439.957 564.335 430.51 564.297 421.358 C 564.259 412.206 567.146 402.712 572.602 395.346 C 579.035 386.964 588.285 382.391 597.183 382.247 C 606.086 382.202 615.372 386.601 621.835 394.963 C 631.653 408.213 632.852 423.421 627.046 438.983 Z"/>
  <path fill="#FFEB75" opacity="1.000000" stroke="none" d="M 338.443 225.502 C 336.582 219.692 335.834 215.845 336.973 212.694 C 338.111 209.546 341.158 207.003 346.307 203.578 C 368.713 188.699 393.213 178.57 419.45 172.846 C 423.211 172.039 426.227 172.039 428.728 173.202 C 431.215 174.358 433.354 176.724 435.588 180.269 L 435.732 180.497 L 435.741 180.768 C 435.937 186.965 435.584 190.92 433.579 193.551 C 431.573 196.182 427.859 197.565 421.879 199.038 C 399.363 204.566 378.392 213.303 359.305 226.592 C 355.606 229.145 352.079 230.442 348.759 230.326 C 345.435 230.21 342.095 228.669 338.764 225.971 L 338.535 225.786 Z"/>
  <path fill="#FFFEFD" opacity="1.000000" stroke="none" d="M 342.938 489.94 C 332.48 489.475 323.694 487.78 316.386 485.086 C 314.667 484.45 312.605 483.506 311.157 482.181 C 309.69 480.838 308.776 478.744 309.241 476.339 C 310.052 473.291 313.464 469.687 316.443 468.458 C 333.682 461.674 351.405 461.661 368.652 468.424 C 371.614 469.644 374.993 473.29 375.78 476.334 C 376.23 478.764 375.251 480.904 373.752 482.258 C 372.267 483.599 370.175 484.528 368.528 485.056 C 357.35 488.518 356.754 489.034 342.938 489.941 Z"/>
  <path fill="#FFFEFD" opacity="1.000000" stroke="none" d="M 639.502 465.601 C 653.986 461.976 668.226 461.843 682.196 466.187 C 684.552 466.924 687.33 467.763 689.494 469.193 C 691.677 470.634 693.336 472.982 693.419 476.24 C 693.296 479.339 691.664 481.613 689.54 483.018 C 687.434 484.411 684.738 485.248 682.45 485.955 C 667.481 490.558 652.236 490.592 637.262 486.004 C 634.993 485.305 632.31 484.49 630.215 483.099 C 628.103 481.697 626.484 479.407 626.371 476.244 C 626.471 473.071 628.11 470.863 630.217 469.491 C 632.304 468.131 634.918 467.297 637.068 466.371 C 637.775 466.08 638.544 465.914 639.502 465.6 Z"/>
</svg>